<svg width="25" height="25" viewBox="0 0 25 25" fill="none" xmlns="http://www.w3.org/2000/svg">
<path d="M2.08337 6.25H22.9167M10.4167 11.4583V16.6667M14.5834 11.4583V16.6667M4.16671 6.25H20.8334L19.1875 21.0625C19.1311 21.5723 18.8887 22.0433 18.5066 22.3854C18.1245 22.7275 17.6296 22.9167 17.1167 22.9167H7.88337C7.3705 22.9167 6.87563 22.7275 6.49353 22.3854C6.11143 22.0433 5.86896 21.5723 5.81254 21.0625L4.16671 6.25ZM7.65108 3.27812C7.81958 2.92079 8.08619 2.61874 8.41984 2.40719C8.75348 2.19565 9.1404 2.08332 9.53546 2.08333H15.4646C15.8599 2.08313 16.247 2.19536 16.5808 2.40691C16.9147 2.61847 17.1815 2.92063 17.35 3.27812L18.75 6.25H6.25004L7.65108 3.27812Z" stroke="#E04300" stroke-width="2" stroke-linecap="round" stroke-linejoin="round"/>
</svg>
